<svg xmlns="http://www.w3.org/2000/svg" version="1.1" xmlns:xlink="http://www.w3.org/1999/xlink" xmlns:svgjs="http://svgjs.dev/svgjs" width="2000" height="1200" preserveAspectRatio="none" viewBox="0 0 2000 1200"><g mask="url(&quot;#SvgjsMask1612&quot;)" fill="none"><rect width="2000" height="1200" x="0" y="0" fill="url(&quot;#SvgjsRadialGradient1613&quot;)"></rect><path d="M1196.823,816.384C1308.316,812.689,1400.305,737.706,1454.686,640.305C1507.563,545.596,1517.335,431.616,1464.553,336.854C1410.375,239.587,1308.087,173.289,1196.823,177.353C1091.345,181.206,1015.347,264.796,960.957,355.251C904.28,449.51,857.465,560.518,907.551,658.439C961.172,763.271,1079.139,820.285,1196.823,816.384" fill="rgba(28, 83, 142, 0.4)" class="triangle-float1"></path><path d="M1312.262,700.903C1343.597,700.634,1365.292,673.893,1381.524,647.089C1398.587,618.912,1415.741,585.392,1399.601,556.676C1383.269,527.618,1345.556,522.243,1312.262,523.86C1282.202,525.32,1253.449,538.395,1238.479,564.502C1223.581,590.484,1226.658,621.955,1240.908,648.298C1255.977,676.155,1280.591,701.175,1312.262,700.903" fill="rgba(28, 83, 142, 0.4)" class="triangle-float1"></path><path d="M535.2709162248802 670.4032763996503L680.5134546157036 497.6445923498199 486.84017503435166 459.9983203930809z" fill="rgba(28, 83, 142, 0.4)" class="triangle-float2"></path><path d="M1190.612,954.963C1274.588,952.409,1349.692,912.41,1397.634,843.417C1454.934,760.957,1502.434,659.497,1458.756,569.08C1410.686,469.572,1301.047,410.775,1190.612,414.87C1086.227,418.74,1003.069,495.113,954.83,587.764C910.448,673.008,908.644,775.837,960.571,856.707C1008.858,931.908,1101.284,957.679,1190.612,954.963" fill="rgba(28, 83, 142, 0.4)" class="triangle-float3"></path><path d="M687.560392006352 193.81637385348796L704.5915532379146 72.63336488938407 514.3014591759775 107.67812752409219z" fill="rgba(28, 83, 142, 0.4)" class="triangle-float3"></path><path d="M1188.98,541.409C1253.356,539.03,1293.365,477.455,1322.124,419.811C1347.21,369.53,1355.051,311.927,1328.06,262.643C1300.003,211.413,1247.39,176.889,1188.98,176.699C1130.259,176.508,1078.416,211.307,1048.324,261.732C1017.395,313.559,1010.508,376.406,1037.625,430.325C1067.762,490.248,1121.951,543.886,1188.98,541.409" fill="rgba(28, 83, 142, 0.4)" class="triangle-float1"></path><path d="M1035.4427635402399 260.99027978504307L797.6324197321129 75.19247633313273 611.8346162802026 313.0028201412597 849.6449600883295 498.80062359317003z" fill="rgba(28, 83, 142, 0.4)" class="triangle-float2"></path><path d="M937.631,511.176C990.29,511.622,1039.362,485.024,1066.724,440.029C1095.224,393.162,1104.173,332.584,1074.152,286.677C1046.102,243.783,988.882,242.426,937.631,242.621C886.87,242.814,830.318,244.991,802.893,287.706C773.85,332.94,784.511,391.841,812.267,437.876C839.056,482.307,885.751,510.737,937.631,511.176" fill="rgba(28, 83, 142, 0.4)" class="triangle-float1"></path><path d="M2018.6875215241112-61.57717364806223L1751.8316040855611-164.01356288910176 1649.3952148445217 102.8423545494482 1916.2511322830717 205.27874379048774z" fill="rgba(28, 83, 142, 0.4)" class="triangle-float3"></path><path d="M152.7777642804478 56.40053742371244L63.868544281024384 188.21387673576987 306.0431632488222 255.67103707887625z" fill="rgba(28, 83, 142, 0.4)" class="triangle-float2"></path></g><defs><mask id="SvgjsMask1612"><rect width="2000" height="1200" fill="#ffffff"></rect></mask><radialGradient cx="0%" cy="100%" r="2332.38" gradientUnits="userSpaceOnUse" id="SvgjsRadialGradient1613"><stop stop-color="#0e2a47" offset="0"></stop><stop stop-color="rgba(204, 182, 151, 0.71)" offset="1"></stop></radialGradient><style>
                @keyframes float1 {
                    0%{transform: translate(0, 0)}
                    50%{transform: translate(-10px, 0)}
                    100%{transform: translate(0, 0)}
                }

                .triangle-float1 {
                    animation: float1 5s infinite;
                }

                @keyframes float2 {
                    0%{transform: translate(0, 0)}
                    50%{transform: translate(-5px, -5px)}
                    100%{transform: translate(0, 0)}
                }

                .triangle-float2 {
                    animation: float2 4s infinite;
                }

                @keyframes float3 {
                    0%{transform: translate(0, 0)}
                    50%{transform: translate(0, -10px)}
                    100%{transform: translate(0, 0)}
                }

                .triangle-float3 {
                    animation: float3 6s infinite;
                }
            </style></defs></svg>